<?xml version="1.0" encoding="utf-8"?>
<!-- Generator: Adobe Illustrator 24.0.2, SVG Export Plug-In . SVG Version: 6.00 Build 0)  -->
<svg version="1.1" id="Calque_1" xmlns="http://www.w3.org/2000/svg" xmlns:xlink="http://www.w3.org/1999/xlink" x="0px" y="0px"
	 viewBox="0 0 780.8 301.6" style="enable-background:new 0 0 780.8 301.6;" xml:space="preserve">
<style type="text/css">
	.st0{clip-path:url(#SVGID_2_);}
	.st1{clip-path:url(#SVGID_4_);fill:#69C3D2;}
	.st2{clip-path:url(#SVGID_4_);fill:#80CED6;}
	.st3{opacity:0.44;clip-path:url(#SVGID_6_);}
	.st4{clip-path:url(#SVGID_8_);fill:#4FA6AF;}
	.st5{clip-path:url(#SVGID_10_);fill:#69C3D2;}
	.st6{clip-path:url(#SVGID_10_);fill:#80CED6;}
	.st7{clip-path:url(#SVGID_10_);fill:#FFFFFF;}
	.st8{clip-path:url(#SVGID_12_);fill:#D1D1D1;}
	.st9{clip-path:url(#SVGID_14_);fill:#009EBE;}
	.st10{clip-path:url(#SVGID_14_);fill:#69C3D2;}
	.st11{clip-path:url(#SVGID_14_);fill:#80CED6;}
	.st12{opacity:8.000180e-02;clip-path:url(#SVGID_14_);}
	.st13{clip-path:url(#SVGID_16_);fill:#FFFFFF;}
	.st14{clip-path:url(#SVGID_14_);fill:#FFFFFF;}
</style>
<g>
	<defs>
		<rect id="SVGID_1_" width="780.8" height="301.6"/>
	</defs>
	<clipPath id="SVGID_2_">
		<use xlink:href="#SVGID_1_"  style="overflow:visible;"/>
	</clipPath>
	<g class="st0">
		<defs>
			<rect id="SVGID_3_" width="780.8" height="301.6"/>
		</defs>
		<clipPath id="SVGID_4_">
			<use xlink:href="#SVGID_3_"  style="overflow:visible;"/>
		</clipPath>
		<path class="st1" d="M51.4,202.8l27.8-48.1c-2.2-1-4.5-2-6.7-2.9c-4.3,4.5-8,9.5-11,15.3c0,0,0,0,0,0.1c-0.4,0.7-0.8,1.4-1.2,2.1
			C54.6,180,51.8,191.4,51.4,202.8"/>
		<path class="st1" d="M211,62.5C211,62.5,211,62.5,211,62.5L211,62.5C211,62.5,211,62.5,211,62.5C211,62.5,211,62.5,211,62.5
			c0.4-1.9-1-0.5-1.8,1.7c0,0,0,0,0,0c-18.9,41.1-17.6,71.9-14.9,86.3c-13.2-11.9-18.4-2.1-19.1,14.3c-0.7,15.5,0.1,30.3-9.4,43.6
			c-10.8,15-27.4,18.6-41.9,6.5c-0.9-0.8-1.9-1.6-2.8-2.5l-11.8,18c-6,9.2-26.5,23.3-41.9,23.4c7.4,10.2,17.3,19,29.3,25.3
			c40.7,21.5,90.5,7.2,111.2-32c0.4-0.7,0.7-1.4,1.1-2.2c0,0,0.1,0,0.1,0C232.9,199.5,195.9,147.4,211,62.5"/>
		<path class="st2" d="M209.8,227.8c14.6-38.3-8.2-82-4.6-146.1c-1.6,4.5-2.9,8.9-4,13.1C196.9,151.6,213.9,192.7,209.8,227.8"/>
		<path class="st1" d="M214.9,182.7c-12.6-1.3-26.7-2.1-33.5,5.3c-13.4,14.6-34.8,27.9-54.3,32c-4.1,0.9-8,1.1-11.7,0.8l-6.3,9.6
			c-7.5,11.4-37.1,30.4-52,20.7c0,0,14.6,17.2,0,8.5c-14.6-8.7-23.6-25.4-12.7-45l41.2-71.4c5-7.7,13.5-12.2,21.2-17.7
			c3-11.2,0.4-18.5-17.6-10.9c10.7-13.4,28.9-44.6,31.8-97.6c0,0,0,0,0,0c0.4-2.8-0.3-5-0.9-2.8v0c0,0,0,0,0,0v0
			c-31,96.3-97.8,130-97.8,190.4c0,0,0,0,0.1,0.1c0,0.9-0.1,1.9-0.1,2.8c0,51.9,43.8,94.1,97.8,94.1c54,0,97.8-42.1,97.8-94.1
			c0-0.9,0-1.9-0.1-2.8c0,0,0,0,0.1-0.1C217.9,197,216.8,189.7,214.9,182.7"/>
	</g>
	<g class="st0">
		<defs>
			<path id="SVGID_5_" d="M120.2,14.3L120.2,14.3L120.2,14.3z M120.2,14.3L120.2,14.3C120.2,14.3,120.2,14.3,120.2,14.3L120.2,14.3
				c-31,96.3-97.8,130-97.8,190.4c0,0,0.1,0,0.1,0.1c0,0.9-0.1,1.9-0.1,2.8c0,51.9,43.8,94.1,97.8,94.1c54,0,97.8-42.1,97.8-94.1
				c0-0.9,0-1.9-0.1-2.8c0,0,0,0,0.1-0.1c0-7.7-1.1-14.9-3-21.9c-12.6-1.3-26.7-2.1-33.5,5.3c-13.4,14.6-34.8,27.9-54.3,32
				c-21.7,4.7-36.9-8.3-39.9-29.7c-2.7-19,6.3-33.9,14.1-50.3c8.2-17.5,13.2-36-12-25.3c10.7-13.4,28.9-44.6,31.8-97.6v0
				c0.3-2,0-3.7-0.4-3.7C120.5,13.4,120.4,13.6,120.2,14.3"/>
		</defs>
		<clipPath id="SVGID_6_">
			<use xlink:href="#SVGID_5_"  style="overflow:visible;"/>
		</clipPath>
		<g class="st3">
			<g>
				<defs>
					<rect id="SVGID_7_" y="92.7" width="223.6" height="184.8"/>
				</defs>
				<clipPath id="SVGID_8_">
					<use xlink:href="#SVGID_7_"  style="overflow:visible;"/>
				</clipPath>
				<path class="st4" d="M10.6,277.5c46.1-44,148.9-140,213-184.8L219,93c-36.8,28.4-74.3,51.9-75.4,52.2l-46.4,16.7
					c-9.4,3.4-19.7,5.5-26.9,11.7l-60.2,58C-5.5,247.2-1.3,265.2,10.6,277.5"/>
			</g>
		</g>
	</g>
	<g class="st0">
		<defs>
			<rect id="SVGID_9_" width="780.8" height="301.6"/>
		</defs>
		<clipPath id="SVGID_10_">
			<use xlink:href="#SVGID_9_"  style="overflow:visible;"/>
		</clipPath>
		<path class="st5" d="M129.3,0c0,0,2.1,36.9,0,47c-2.1,10.2,6.9,1.1,9.1-12.8C140.5,20.3,141,2.7,129.3,0"/>
		<path class="st5" d="M229.9,59c0,0-11.1,26.5-12.1,34.5c-1,8-5.4-1-3.4-11.7C216.5,71,220.6,57.9,229.9,59"/>
		<path class="st6" d="M224.6,61.2c-1.6,3.9-7.5,18.4-8.5,24.1c0.6,3.6,2.1,5,2.6,1.2c0.8-6,9-25.7,9-25.7
			C226.6,60.6,225.6,60.8,224.6,61.2"/>
		<path class="st5" d="M127.5,81.7c0,0-11.1,26.5-12.1,34.5c-1,8-5.4-1-3.4-11.7C114.1,93.7,118.2,80.7,127.5,81.7"/>
		<path class="st7" d="M228.2,18.6L213,23.6c-7.9,2.5-14.7,7.5-19.6,14.2c-24.3,33.5-45.2,62.2-46,62.8l-38.2,29.2
			c-7.8,6-14.4,13.1-19.7,21.1l-41.7,63.6c-9,13.7-6.1,32.3,7,42.1c0.3,0.3,0.7,0.5,1.1,0.8c13.9,9.1,43.3-10.9,50.9-22.6l33.2-50.7
			c5.3-8.1,9.2-17,11.5-26.5l11.6-46.7c0.3-1.2,35.2-46.5,66.5-90.3C230.4,19.6,229.4,18.3,228.2,18.6 M127,148.2
			c-4,6.8-8.2,13.6-12.6,20.2c-4.4,6.6-9,13.1-13.7,19.4c-4.8,6.3-9.8,12.5-15.3,18.4c3.3-7.3,7.1-14.3,11.1-21.2
			c4-6.8,8.2-13.6,12.6-20.1c4.4-6.6,9-13.1,13.8-19.4c4.8-6.3,9.8-12.5,15.2-18.4C134.9,134.3,131,141.3,127,148.2"/>
	</g>
	<g class="st0">
		<defs>
			<path id="SVGID_11_" d="M228.2,18.6L213,23.6c-7.9,2.5-14.7,7.5-19.6,14.2c-24.3,33.5-45.2,62.2-46,62.8l-38.2,29.2
				c-7.8,6-14.4,13.1-19.7,21.1l-41.7,63.6c-9,13.7-6.1,32.3,7,42.1c0.3,0.3,0.7,0.5,1,0.8c13.9,9.1,43.3-10.9,50.9-22.6l33.2-50.7
				c5.3-8.1,9.2-17,11.5-26.5l11.6-46.7c0.3-1.2,35.2-46.5,66.5-90.3c0.6-0.9-0.1-2-1-2C228.5,18.6,228.4,18.6,228.2,18.6"/>
		</defs>
		<clipPath id="SVGID_12_">
			<use xlink:href="#SVGID_11_"  style="overflow:visible;"/>
		</clipPath>
		<path class="st8" d="M37.3,212.7c0,0,40.5,34.1,114.2-25.9c-32.2,54.6-68.7,86.2-90.8,84C38.6,268.7,26.8,247.5,35,220
			C43.2,192.5,37.3,212.7,37.3,212.7"/>
	</g>
	<g class="st0">
		<defs>
			<rect id="SVGID_13_" width="780.8" height="301.6"/>
		</defs>
		<clipPath id="SVGID_14_">
			<use xlink:href="#SVGID_13_"  style="overflow:visible;"/>
		</clipPath>
		<path class="st9" d="M217.9,206.7c0-0.9,0-1.9-0.1-2.8c0,0,0,0,0.1-0.1c0-15.1-4.2-28.5-10.9-41.6c-9.8-13.9-25.9-23-44.2-23
			c-28.4,0-51.7,22-53.8,49.8c-0.1,0.2-0.1,0.4-0.1,0.6c-1.3,18.2-6.9,34.5-15.3,46.6c-9.1,13.1-21.6,21.1-35.2,21.1
			c-10,0-19.4-4.3-27.3-11.7c1.4,2.9,3,5.8,4.6,8.6c17,27.9,48.4,46.6,84.4,46.6C174.2,300.8,217.9,258.7,217.9,206.7"/>
		<path class="st10" d="M180,105c0,0-1.8,16.3-0.1,20.8c1.7,4.5-5.5,0.5-7.2-5.7C171.1,114,170.8,106.2,180,105"/>
		<path class="st11" d="M176.2,107c-0.2,2.2-0.9,10.4-0.1,13.5c1.7,1.7,3.4,2.1,2.7,0.1c-1.2-3.1,0.1-14.4,0.1-14.4
			C177.7,106.4,176.9,106.6,176.2,107"/>
		<g class="st12">
			<g>
				<defs>
					<rect id="SVGID_15_" x="82.8" y="152.6" width="122.2" height="134.7"/>
				</defs>
				<clipPath id="SVGID_16_">
					<use xlink:href="#SVGID_15_"  style="overflow:visible;"/>
				</clipPath>
				<path class="st13" d="M205,206.5c0-12.6-3.5-23.7-9.1-34.7c-8.1-11.6-21.6-19.2-36.8-19.2c-2.9,0-5.7,0.3-8.4,0.8
					c2.7,2.4,5.1,5,7.1,8c5.6,11,9.1,22.1,9.1,34.7c0,0,0,0-0.1,0.1c0,0.8,0.1,1.6,0.1,2.4c0,43.3-36.5,78.4-81.5,78.4
					c-0.9,0-1.8,0-2.6,0c12,6.7,25.9,10.5,40.7,10.5c45,0,81.5-35.1,81.5-78.4C205,208.1,205,207.4,205,206.5
					C205,206.6,205,206.5,205,206.5"/>
			</g>
		</g>
		<path class="st9" d="M32.1,246.5c0,0,40.7-12.1,49.3-21.4c8.6-9.3,7.7,14.8-4.8,25.8C64.1,261.9,46.1,271.1,32.1,246.5"/>
		<polygon class="st9" points="422.5,142.9 431.6,142.9 427.5,171.8 456.4,142.9 468.4,142.9 439.1,172.1 466.6,208.1 454.6,208.1 
			432.5,178.9 425.6,185.7 422.3,208.1 413.3,208.1 		"/>
		<path class="st9" d="M502,142.9h8.4l11.8,65.2h-9.5l-2-10.9h-24.3l-5.3,10.9h-9.6L502,142.9z M509.2,188.6l-5.3-29.2l-13.7,29.2
			H509.2z"/>
		<path class="st9" d="M520.5,142.9h11l14.6,24.2l21.6-24.2h11.4l-19.8,22.2c-0.9,1.1-1.8,2-2.7,2.8c-0.9,0.8-1.7,1.6-2.6,2.4
			c-0.9,0.8-1.6,1.6-2.3,2.5c-0.7,0.8-1.3,1.8-1.9,2.9v0.3c0,0.1,0,0.3,0,0.4c0,0.2,0,0.3,0,0.5c-0.2,0.7-0.4,1.9-0.6,3.4
			c-0.2,1.4-0.4,3-0.6,4.9c-0.2,1.8-0.5,3.7-0.8,5.7c-0.2,1.9-0.5,3.8-0.8,5.7c-0.3,1.9-0.5,3.6-0.7,5.1c-0.2,1.5-0.4,2.8-0.6,3.9
			c-0.2,1.1-0.3,1.7-0.3,2l-0.1,0.5h-9.2l4.6-32.7L520.5,142.9z"/>
		<path class="st9" d="M588.8,142.9h8.4l11.8,65.2h-9.5l-2-10.9h-24.3l-5.3,10.9h-9.5L588.8,142.9z M596,188.6l-5.3-29.2L577,188.6
			H596z"/>
		<polygon class="st9" points="626.1,142.9 635.2,142.9 631.1,171.8 659.9,142.9 672,142.9 642.7,172.1 670.1,208.1 658.2,208.1 
			636,178.9 629.1,185.7 625.8,208.1 616.8,208.1 		"/>
		<path class="st14" d="M680.7,198.1c1.6,0,2.8,0.5,3.6,1.4c0.8,1,1.2,1.9,1.2,2.9c0,0.6-0.1,1.2-0.4,1.8c-0.2,0.6-0.6,1.3-1.2,1.9
			c-0.5,0.6-1.2,1.1-1.9,1.4c-0.7,0.4-1.6,0.6-2.5,0.6c-1.6,0-2.8-0.5-3.7-1.5c-0.8-1-1.3-2-1.3-2.9c0-0.6,0.1-1.2,0.4-1.8
			c0.3-0.6,0.7-1.3,1.2-1.8c0.5-0.6,1.1-1,1.9-1.4C678.8,198.3,679.7,198.1,680.7,198.1"/>
		<path class="st14" d="M710.3,208.1c-2.3,0-4.5-0.4-6.5-1.1c-2.1-0.7-3.9-1.7-5.5-2.9l-0.6,4h-9.1l9.3-65.2h9.2l-3.9,27.2
			c1.8-1.1,3.8-2,6-2.7c2.2-0.7,4.5-1,6.8-1c3.2,0,5.9,0.6,8.3,1.7c2.4,1.1,4.3,2.5,5.9,4.3c1.5,1.7,2.7,3.7,3.5,5.8
			c0.8,2.2,1.2,4.3,1.2,6.3c0,2.5-0.6,5.1-1.7,7.9c-1.1,2.8-2.7,5.3-4.8,7.7c-2.1,2.4-4.7,4.3-7.7,5.8
			C717.5,207.4,714.1,208.1,710.3,208.1 M715.1,174.7c-2.2,0-4.1,0.5-5.9,1.4c-1.8,0.9-3.3,2.1-4.6,3.5c-1.3,1.4-2.2,2.9-2.9,4.6
			c-0.7,1.7-1,3.3-1,4.9c0,1.2,0.2,2.5,0.7,3.7c0.5,1.2,1.1,2.4,2,3.4c0.9,1,1.9,1.8,3.2,2.5c1.3,0.6,2.8,0.9,4.5,0.9
			c2.2,0,4.1-0.4,5.9-1.3c1.8-0.9,3.3-2,4.6-3.4c1.3-1.4,2.2-2.9,2.9-4.6c0.7-1.7,1-3.3,1-4.8c0-1.3-0.2-2.6-0.7-3.8
			c-0.4-1.3-1.1-2.4-2-3.4c-0.9-1-2-1.8-3.3-2.5C718.3,175,716.8,174.7,715.1,174.7"/>
		<path class="st14" d="M774.4,200.6l-0.9,0.8c-2.2,1.9-4.6,3.4-7.2,4.7c-2.7,1.3-5.7,1.9-9.3,1.9c-3.2,0-6-0.6-8.3-1.7
			c-2.3-1.1-4.3-2.6-5.8-4.3c-1.5-1.8-2.7-3.7-3.5-5.9c-0.8-2.2-1.2-4.3-1.2-6.3c0-2.5,0.6-5.2,1.7-7.9c1.1-2.8,2.7-5.3,4.8-7.6
			c2.1-2.3,4.7-4.2,7.7-5.7c3-1.5,6.5-2.3,10.3-2.3c3.7,0,6.9,0.8,9.7,2.4s4.9,3.6,6.4,6c0.4,0.6,0.7,1.2,0.9,1.8
			c0.2,0.6,0.5,1.2,0.8,1.9c0,0.1,0,0.1,0.1,0.2v0.2l0.3,0.5l-31.3,16.5c0.9,1.1,2.1,2,3.5,2.7c1.4,0.7,3,1,4.8,1
			c1.9,0,3.8-0.4,5.7-1.3c1.9-0.8,3.4-1.9,4.5-3.1l0.6-0.7L774.4,200.6z M768.4,177.3c-0.9-0.8-1.9-1.4-3-1.9
			c-1.1-0.5-2.3-0.7-3.7-0.7c-2.4,0-4.4,0.4-6.2,1.2c-1.8,0.8-3.2,1.9-4.4,3.2c-1.2,1.3-2.1,2.8-2.7,4.5c-0.6,1.6-1,3.3-1.2,5
			L768.4,177.3z"/>
		<polygon class="st14" points="270.8,164.4 271.8,157.6 299.2,157.6 301.5,143 258.4,143 249.1,208.6 264.4,208.6 268.7,179.1 
			296.1,179.1 298.4,164.4 		"/>
		<polygon class="st14" points="319.9,157.6 347.3,157.6 349.6,143 306.5,143 297.2,208.6 312.5,208.6 316.8,179.1 344.2,179.1 
			346.5,164.4 318.9,164.4 		"/>
		<path class="st14" d="M391.9,188.6l-0.8,0.5c-0.1,0.1-0.3,0.2-0.3,0.2l-0.3,0.2c-2,1.4-4,2.5-6,3.3c-1.8,0.7-4,1.1-6.5,1.1
			c-2.6,0-4.9-0.4-6.8-1.3c-1.9-0.9-3.5-2.1-4.7-3.4c-1.3-1.4-2.2-3-2.8-4.7c-0.6-1.8-1-3.6-1-5.3c0-2.3,0.5-4.7,1.5-7.1
			c1-2.5,2.5-4.9,4.4-7c1.9-2.1,4.2-3.9,7-5.2c2.6-1.3,5.6-2,8.9-2c2.3,0,4.3,0.4,6,1.2c1.8,0.8,3.5,1.9,5.1,3.2l3,3l10.4-10.7
			l-1.8-2.4l-0.4-0.6c-1.2-1.4-2.7-2.6-4.4-3.7c-1.6-1-3.4-1.9-5.2-2.5c-1.8-0.7-3.7-1.2-5.7-1.6c-5.3-1-10.7-0.6-15.7,0.8
			c-3.1,0.9-6.1,2.1-8.9,3.7c-2.8,1.6-5.4,3.5-7.7,5.8c-2.3,2.2-4.4,4.7-6.1,7.4c-1.7,2.7-3.1,5.7-4,8.8c-1,3.2-1.4,6.4-1.4,9.8
			c0,3.3,0.6,6.6,1.8,10c1.2,3.4,3.1,6.6,5.5,9.3c2.5,2.8,5.6,5.1,9.4,6.9c3.8,1.8,8.2,2.7,13.2,2.7c4.2,0,8.3-0.7,12.1-2.1
			c3.6-1.4,6.9-3.1,9.9-5.2c0.3-0.2,0.6-0.4,0.9-0.7l2.9-2.2l-8.2-11.4L391.9,188.6z"/>
	</g>
</g>
</svg>
